<?xml version="1.0" encoding="utf-8"?>
<svg id="Layer_1" data-name="Layer 1" xmlns="http://www.w3.org/2000/svg" viewBox="0 0 1000 1000">
  <defs>
    <style>
      .cls-1 {
        fill: #000000;
      }

      .cls-1, .cls-2 {
        stroke-width: 0px;
      }

      .cls-2 {
        fill: #fff;
      }

      
    </style>
  </defs>
  <rect class="cls-1" width="1000" height="1000" rx="125" ry="125"/>
  <g transform="matrix(1.243729, 0, 0, 1.243729, -119.737679, -120.807358)" >
    <path class="cls-2" d="m601.21,320.88h-205.85l-102.92,178.27h0l-102.92,178.27h205.85l102.92-178.27,102.92,178.27h205.85l-205.85-356.53Zm-283.04,162.86l76.46-132.05,76.46,132.05h-152.91Zm296.27,173.87l-94.84-164.33,81.6-141.59,174.23,305.91h-161Z"/>
    <polygon class="cls-1" points="394.63 351.69 318.17 483.74 471.09 483.74 394.63 351.69"/>
    <polygon class="cls-1" points="601.21 351.69 519.61 493.28 614.44 657.61 775.44 657.61 601.21 351.69"/>
  </g>
</svg>